<svg xmlns="http://www.w3.org/2000/svg" width="34" height="30" viewBox="0 0 60 50">
  <!-- white halo so the crab reads on cobalt scenes too -->
  <g fill="none" stroke="#FFFFFF" stroke-width="7" stroke-linecap="round" stroke-linejoin="round" opacity="0.92">
    <ellipse cx="30" cy="31" rx="13" ry="9"/>
    <line x1="26" y1="23" x2="24" y2="16"/><line x1="34" y1="23" x2="36" y2="16"/>
    <path d="M18 28 Q8 24 6 15 M6 15 Q11 13 13 18"/>
    <path d="M42 28 Q52 24 54 15 M54 15 Q49 13 47 18"/>
    <path d="M20 35 L13 39"/><path d="M22 38 L16 44"/>
    <path d="M40 35 L47 39"/><path d="M38 38 L44 44"/>
  </g>
  <g fill="none" stroke="#240BE2" stroke-width="3" stroke-linecap="round" stroke-linejoin="round">
    <ellipse cx="30" cy="31" rx="13" ry="9"/>
    <line x1="26" y1="23" x2="24" y2="16"/><line x1="34" y1="23" x2="36" y2="16"/>
    <path d="M18 28 Q8 24 6 15 M6 15 Q11 13 13 18"/>
    <path d="M42 28 Q52 24 54 15 M54 15 Q49 13 47 18"/>
    <path d="M20 35 L13 39"/><path d="M22 38 L16 44"/>
    <path d="M40 35 L47 39"/><path d="M38 38 L44 44"/>
  </g>
  <circle cx="24" cy="15" r="3" fill="#FFFFFF"/><circle cx="36" cy="15" r="3" fill="#FFFFFF"/>
  <circle cx="24" cy="15" r="2" fill="#240BE2"/><circle cx="36" cy="15" r="2" fill="#240BE2"/>
</svg>
